<?xml version="1.0" standalone="no"?>
<!DOCTYPE svg PUBLIC "-//W3C//DTD SVG 20010904//EN"
 "http://www.w3.org/TR/2001/REC-SVG-20010904/DTD/svg10.dtd">
<svg version="1.0" xmlns="http://www.w3.org/2000/svg"
 width="512.000000pt" height="512.000000pt" viewBox="0 0 512.000000 512.000000"
 preserveAspectRatio="xMidYMid meet">

<g transform="translate(0.000000,512.000000) scale(0.100000,-0.100000)"
fill="#FFFFFF" stroke="none">
<path d="M1085 5106 c-188 -30 -411 -122 -561 -233 -284 -211 -472 -531 -514
-875 -8 -67 -10 -491 -8 -1493 4 -1299 5 -1405 22 -1475 65 -274 169 -466 355
-651 149 -150 297 -243 486 -307 208 -71 88 -66 1645 -70 1036 -2 1428 0 1494
8 433 58 796 320 987 715 63 130 100 253 119 391 8 66 10 458 8 1494 -4 1303
-5 1410 -22 1480 -65 274 -169 466 -355 651 -203 204 -435 321 -721 364 -130
20 -2808 20 -2935 1z m1820 -816 c552 -118 1000 -467 1240 -965 235 -488 232
-1062 -10 -1546 -146 -292 -384 -554 -655 -719 -207 -126 -287 -148 -365 -100
-69 43 -75 69 -75 355 0 335 -20 412 -133 532 -29 30 -46 57 -41 62 5 4 52 13
106 19 584 70 897 727 582 1220 l-34 53 10 86 c12 91 8 154 -17 268 -18 84
-33 110 -68 119 -57 15 -259 -63 -355 -137 -43 -33 -48 -34 -95 -26 -65 10
-805 10 -870 0 -46 -8 -53 -6 -85 19 -59 47 -161 97 -253 125 -105 33 -136 26
-160 -33 -36 -90 -52 -234 -38 -338 l12 -81 -44 -71 c-188 -304 -140 -711 113
-968 140 -142 310 -222 506 -240 41 -4 77 -11 80 -16 3 -5 -17 -33 -44 -62
-55 -58 -95 -129 -113 -200 l-11 -46 -69 0 c-159 0 -266 48 -389 177 -55 57
-98 92 -133 109 -103 47 -183 41 -207 -17 -23 -54 20 -109 84 -109 37 0 87
-40 131 -105 116 -171 295 -276 495 -292 l80 -6 0 -149 c0 -170 -8 -200 -66
-244 -31 -24 -47 -29 -93 -28 -46 0 -72 9 -147 47 -491 249 -827 688 -946
1237 -20 92 -22 133 -22 340 0 263 10 336 81 555 202 628 740 1080 1418 1191
126 21 473 12 600 -16z"/>
</g>
</svg>
