<?xml version="1.0" standalone="no"?>
<!DOCTYPE svg PUBLIC "-//W3C//DTD SVG 20010904//EN"
 "http://www.w3.org/TR/2001/REC-SVG-20010904/DTD/svg10.dtd">
<svg version="1.0" xmlns="http://www.w3.org/2000/svg"
 width="512.000000pt" height="512.000000pt" viewBox="0 0 512.000000 512.000000"
 preserveAspectRatio="xMidYMid meet">

<g transform="translate(0.000000,512.000000) scale(0.100000,-0.100000)"
fill="#ffffff" stroke="none">
<path d="M92 3823 c-94 -46 -121 -165 -55 -244 54 -63 -134 -59 2523 -59 2684
0 2472 -6 2526 66 24 31 29 47 29 94 0 47 -5 63 -29 94 -54 72 159 66 -2528
66 -2219 0 -2436 -2 -2466 -17z"/>
<path d="M95 2706 c-94 -41 -124 -168 -58 -247 54 -63 -134 -59 2523 -59 2684
0 2472 -6 2526 66 24 31 29 47 29 94 0 47 -5 63 -29 94 -54 72 159 66 -2528
66 -2000 -1 -2438 -3 -2463 -14z"/>
<path d="M1695 1586 c-94 -41 -124 -168 -58 -247 53 -63 -59 -59 1724 -59
1816 0 1671 -6 1727 68 22 29 27 46 27 93 0 62 -17 94 -69 133 -27 21 -28 21
-1674 23 -1354 2 -1652 0 -1677 -11z"/>
</g>
</svg>
