<?xml version="1.0" standalone="no"?>
<!DOCTYPE svg PUBLIC "-//W3C//DTD SVG 20010904//EN"
 "http://www.w3.org/TR/2001/REC-SVG-20010904/DTD/svg10.dtd">
<svg version="1.0" xmlns="http://www.w3.org/2000/svg"
 width="512.000000pt" height="512.000000pt" viewBox="0 0 512.000000 512.000000"
 preserveAspectRatio="xMidYMid meet">

<g transform="translate(0.000000,512.000000) scale(0.100000,-0.100000)"
fill="#ffffff" stroke="none">
<path d="M1680 5109 c-61 -26 -100 -85 -100 -154 0 -49 16 -89 47 -118 11 -9
191 -105 399 -213 208 -108 382 -199 386 -202 3 -4 -50 -115 -118 -247 -320
-616 -313 -599 -273 -681 49 -102 189 -121 260 -35 17 20 139 245 271 501 201
387 242 474 246 516 5 60 -16 115 -57 143 -14 10 -233 125 -486 256 -479 248
-511 261 -575 234z"/>
<path d="M1840 4406 c-603 -231 -1068 -772 -1214 -1411 -29 -127 -37 -198 -43
-370 -12 -343 51 -638 198 -935 201 -405 507 -710 910 -909 164 -81 244 -106
297 -92 56 15 97 53 118 106 14 38 15 51 4 89 -17 62 -61 100 -165 142 -128
51 -188 84 -311 165 -150 101 -344 294 -443 442 -166 251 -261 527 -279 809
-31 497 133 934 482 1284 176 176 344 288 563 375 94 37 137 75 153 136 25
101 -59 205 -165 202 -11 0 -58 -15 -105 -33z"/>
<path d="M3115 4429 c-40 -11 -90 -64 -104 -110 -17 -52 2 -118 42 -157 18
-17 67 -44 110 -61 382 -151 722 -469 890 -831 124 -266 174 -536 155 -829
-24 -376 -187 -744 -452 -1018 -179 -187 -366 -314 -593 -404 -43 -17 -92 -44
-110 -61 -88 -85 -45 -235 77 -268 38 -10 52 -9 109 10 94 31 273 118 371 181
372 237 655 583 805 984 174 463 166 990 -20 1444 -206 502 -614 903 -1117
1097 -90 35 -112 38 -163 23z"/>
<path d="M2903 1708 c-17 -6 -45 -25 -61 -42 -16 -17 -139 -242 -272 -501
-216 -418 -243 -476 -248 -527 -5 -67 18 -114 71 -146 18 -11 235 -125 482
-253 431 -224 452 -234 507 -234 63 0 97 18 136 75 39 58 27 155 -26 203 -11
10 -193 108 -404 217 -210 109 -382 203 -380 209 1 6 92 186 203 401 123 238
203 405 206 429 7 51 -24 118 -69 148 -40 27 -102 36 -145 21z"/>
</g>
</svg>
