<?xml version="1.0" standalone="no"?>
<!DOCTYPE svg PUBLIC "-//W3C//DTD SVG 20010904//EN"
 "http://www.w3.org/TR/2001/REC-SVG-20010904/DTD/svg10.dtd">
<svg version="1.0" xmlns="http://www.w3.org/2000/svg"
 width="512.000000pt" height="512.000000pt" viewBox="0 0 512.000000 512.000000"
 preserveAspectRatio="xMidYMid meet">

<g transform="translate(0.000000,512.000000) scale(0.100000,-0.100000)"
fill="#ffffff" stroke="none">
<path d="M3452 4639 c-432 -39 -812 -349 -956 -779 -37 -112 -51 -183 -62
-322 -4 -49 -10 -88 -13 -88 -25 0 -325 70 -451 106 -266 74 -411 129 -622
235 -267 133 -457 273 -747 551 l-196 187 -52 -107 c-100 -204 -135 -343 -136
-542 0 -107 5 -154 23 -230 52 -216 168 -432 318 -592 53 -57 44 -60 -64 -27
-84 26 -129 48 -213 105 -91 63 -158 58 -188 -13 -14 -36 -14 -42 7 -108 99
-314 340 -621 662 -846 l73 -51 -95 5 c-109 7 -177 25 -272 73 -37 19 -81 34
-98 34 -45 0 -85 -24 -100 -60 -16 -40 1 -99 66 -230 154 -308 420 -501 774
-560 41 -7 79 -17 84 -21 14 -12 -221 -123 -348 -163 -193 -63 -375 -93 -670
-112 -93 -6 -101 -8 -133 -38 -25 -22 -36 -42 -39 -71 -7 -55 18 -92 97 -144
333 -220 979 -350 1744 -352 303 -1 456 16 695 76 324 82 680 256 959 468 493
376 875 940 1055 1557 84 287 135 618 136 878 0 83 0 83 31 100 64 35 176 131
227 194 59 74 131 206 157 286 28 87 7 141 -62 161 -23 7 -51 2 -119 -20 -49
-16 -92 -29 -96 -29 -4 0 18 35 49 78 91 127 171 300 159 346 -10 39 -45 66
-85 66 -21 0 -95 -25 -181 -61 -175 -73 -341 -138 -432 -168 l-67 -22 -63 35
c-93 52 -277 132 -381 165 -147 48 -246 61 -375 50z m321 -212 c59 -20 182
-73 273 -118 99 -49 183 -83 207 -86 45 -5 150 28 398 126 68 27 126 47 128
45 11 -10 -108 -155 -216 -263 -68 -68 -126 -134 -129 -147 -15 -57 25 -114
79 -114 18 0 106 25 197 55 90 30 165 53 168 51 9 -10 -56 -103 -117 -166 -49
-51 -87 -78 -141 -104 -41 -20 -79 -36 -86 -36 -7 0 -13 -63 -18 -201 -14
-414 -79 -746 -215 -1090 -338 -861 -1060 -1501 -1892 -1677 -195 -41 -265
-47 -584 -46 -587 1 -1095 81 -1444 227 l-76 32 50 7 c28 3 91 12 140 18 215
27 444 92 635 182 135 63 216 113 429 267 l174 126 -249 6 c-252 7 -317 13
-433 44 -158 41 -279 105 -382 202 -67 64 -167 198 -155 210 3 3 36 -2 73 -12
83 -21 324 -30 503 -18 l125 8 13 84 c7 46 11 85 10 86 -2 1 -47 19 -100 39
-103 40 -242 119 -348 198 -150 113 -335 324 -427 487 -30 53 -33 63 -17 58
216 -70 348 -89 602 -85 l182 3 -149 108 c-246 180 -397 345 -492 542 -108
221 -126 438 -57 673 11 39 24 72 29 72 4 0 51 -41 106 -91 419 -387 819 -601
1420 -759 152 -40 570 -130 604 -130 15 0 17 23 21 213 4 195 7 219 32 302
104 347 359 603 682 684 116 29 120 30 234 27 90 -2 120 -8 213 -39z"/>
</g>
</svg>
